if (_typeface_js && _typeface_js.loadFace) _typeface_js.loadFace({"glyphs":{"S":{"x_min":56.953125,"x_max":793.125,"ha":849,"o":"m 709 840 q 591 924 657 900 q 438 948 526 948 q 209 888 280 948 q 138 729 138 829 q 156 645 138 679 q 210 587 173 611 q 304 547 247 563 q 440 515 361 531 q 586 479 520 498 q 697 429 651 459 q 768 355 743 400 q 793 245 793 311 q 768 136 793 183 q 697 56 743 88 q 586 9 651 25 q 443 -6 522 -6 q 230 29 325 -6 q 56 143 136 66 l 84 177 q 243 70 154 106 q 444 34 331 34 q 663 85 583 34 q 743 240 743 136 q 723 329 743 293 q 664 392 704 366 q 565 436 625 418 q 423 472 505 455 q 280 506 343 488 q 175 552 218 525 q 111 620 133 580 q 90 722 90 661 q 115 838 90 787 q 185 922 140 888 q 294 975 230 957 q 437 993 358 993 q 604 965 533 993 q 736 876 676 937 l 709 840 "},"/":{"x_min":41.671875,"x_max":737.5625,"ha":776,"o":"m 737 986 l 97 0 l 41 0 l 680 986 l 737 986 "},"K":{"x_min":136.125,"x_max":866.734375,"ha":872,"o":"m 136 0 l 136 984 l 183 984 l 183 365 l 786 986 l 845 986 l 430 554 l 866 0 l 809 0 l 398 525 l 183 305 l 183 0 l 136 0 "},"7":{"x_min":69.453125,"x_max":720.890625,"ha":746,"o":"m 644 763 l 69 763 l 69 809 l 720 809 l 218 -176 l 163 -176 l 644 763 "},"d":{"x_min":62.5,"x_max":757,"ha":847,"o":"m 409 -13 q 270 18 334 -13 q 160 102 206 50 q 88 220 113 154 q 62 358 62 287 q 87 501 62 433 q 156 620 112 569 q 262 702 201 672 q 395 733 323 733 q 487 719 444 733 q 566 681 530 705 q 632 625 602 657 q 684 558 662 593 l 684 1013 l 732 1013 l 732 75 q 757 44 732 44 l 757 0 q 744 -1 752 -1 q 704 17 720 -1 q 687 58 687 36 l 687 147 q 634 81 665 111 q 566 30 602 51 q 490 -2 530 9 q 409 -13 450 -13 m 415 30 q 501 47 455 30 q 586 92 547 63 q 653 159 626 120 q 684 238 680 197 l 684 487 q 638 566 669 529 q 570 629 608 602 q 488 672 531 657 q 402 688 444 688 q 281 660 336 688 q 189 585 227 632 q 130 479 151 538 q 109 358 109 420 q 133 234 109 293 q 198 129 156 175 q 295 57 240 84 q 415 30 351 30 "},",":{"x_min":91.671875,"x_max":156.953125,"ha":263,"o":"m 91 -19 q 113 2 113 -19 l 113 102 l 156 102 l 156 0 q 138 -45 156 -30 q 91 -59 119 -59 l 91 -19 "},"Y":{"x_min":19.453125,"x_max":855.625,"ha":874,"o":"m 72 986 l 436 426 l 801 986 l 855 986 l 459 377 l 459 0 l 412 0 l 412 380 l 19 986 l 72 986 "},"E":{"x_min":136.125,"x_max":787.5625,"ha":857,"o":"m 787 44 l 787 0 l 136 0 l 136 986 l 775 986 l 775 941 l 183 941 l 183 526 l 701 526 l 701 481 l 183 481 l 183 44 l 787 44 "},"y":{"x_min":26.390625,"x_max":713.953125,"ha":751,"o":"m 168 -265 q 211 -262 193 -265 q 237 -254 230 -259 q 247 -240 241 -251 q 267 -202 254 -229 q 301 -126 280 -175 q 355 0 322 -77 l 26 722 l 77 722 l 380 50 l 666 722 l 713 722 l 300 -244 q 257 -295 283 -283 q 195 -308 231 -308 l 168 -308 l 168 -265 "},"\"":{"x_min":90.28125,"x_max":222.234375,"ha":313,"o":"m 90 854 l 90 988 l 133 988 l 133 854 l 90 854 m 177 854 l 177 988 l 222 988 l 222 854 l 177 854 "},"˙":{"x_min":69.453125,"x_max":113.890625,"ha":183,"o":"m 69 898 l 69 1013 l 113 1013 l 113 898 l 69 898 "},"g":{"x_min":62.5,"x_max":732,"ha":843,"o":"m 406 -12 q 268 19 331 -12 q 159 103 205 51 q 88 222 113 155 q 62 358 62 288 q 86 499 62 431 q 155 618 111 566 q 261 702 200 670 q 397 733 323 733 q 487 719 445 733 q 565 682 529 705 q 631 626 601 658 q 687 558 662 594 l 687 722 l 732 722 l 732 -22 q 704 -149 732 -95 q 631 -238 677 -202 q 526 -292 586 -275 q 402 -309 466 -309 q 289 -297 338 -309 q 202 -262 240 -284 q 136 -209 165 -240 q 87 -140 108 -177 l 122 -120 q 241 -233 166 -198 q 402 -268 316 -268 q 511 -252 459 -268 q 600 -206 562 -237 q 661 -129 638 -175 q 684 -22 684 -83 l 684 147 q 631 81 662 111 q 563 31 600 52 q 487 0 527 11 q 406 -12 447 -12 m 415 30 q 510 49 463 30 q 594 97 556 68 q 656 164 632 127 q 684 238 680 201 l 684 487 q 638 568 668 530 q 570 632 608 605 q 490 673 533 658 q 402 688 447 688 q 279 659 333 688 q 187 583 225 630 q 129 477 150 536 q 109 358 109 418 q 133 234 109 293 q 198 129 156 175 q 295 57 240 84 q 415 30 351 30 "},"e":{"x_min":62.5,"x_max":759.78125,"ha":807,"o":"m 413 -13 q 276 15 340 -13 q 164 97 212 45 q 89 218 116 150 q 62 365 62 287 q 88 508 62 441 q 162 625 115 575 q 272 704 209 675 q 408 733 334 733 q 545 704 481 733 q 656 624 609 675 q 732 505 704 573 q 759 361 759 437 q 759 350 759 358 q 758 340 758 341 l 111 340 q 141 215 115 273 q 209 116 168 158 q 302 50 250 75 q 415 26 355 26 q 493 36 455 26 q 565 66 531 47 q 623 113 598 86 q 663 172 648 140 l 707 161 q 661 90 691 123 q 593 35 632 58 q 508 0 554 12 q 413 -13 462 -13 m 712 380 q 683 505 708 448 q 617 604 658 562 q 523 668 576 645 q 409 691 470 691 q 295 668 348 691 q 202 602 243 644 q 138 504 162 561 q 109 380 113 447 l 712 380 "},"J":{"x_min":30.5625,"x_max":544.484375,"ha":670,"o":"m 48 84 q 244 30 126 30 q 379 61 329 30 q 455 150 429 91 q 489 293 481 208 q 497 484 497 377 l 497 984 l 544 984 l 544 484 q 534 279 544 372 q 493 122 525 187 q 403 20 462 56 q 244 -15 344 -15 q 30 45 119 -15 l 48 84 "},"|":{"x_min":122.234375,"x_max":166.6875,"ha":289,"o":"m 122 -180 l 122 1076 l 166 1076 l 166 -180 l 122 -180 "},"˘":{"x_min":66.671875,"x_max":291.6875,"ha":358,"o":"m 179 927 q 229 952 206 927 q 256 1013 252 977 l 291 1013 q 282 968 291 990 q 257 931 273 947 q 221 906 241 915 q 179 897 201 897 q 135 906 155 897 q 100 931 115 915 q 75 968 84 947 q 66 1013 66 990 l 102 1013 q 126 954 102 982 q 179 927 150 927 "},"^":{"x_min":65.28125,"x_max":654.21875,"ha":720,"o":"m 65 420 l 340 986 l 380 986 l 654 420 l 608 420 l 361 932 l 109 420 l 65 420 "},"q":{"x_min":62.5,"x_max":757,"ha":842,"o":"m 394 -13 q 258 18 319 -13 q 153 102 197 50 q 86 221 109 154 q 62 359 62 288 q 89 501 62 433 q 163 620 116 569 q 272 702 209 672 q 408 733 336 733 q 492 720 451 733 q 569 686 533 708 q 635 635 605 665 q 686 572 665 605 l 686 722 l 730 722 l 730 -219 q 757 -251 730 -250 l 757 -294 q 744 -295 752 -295 q 700 -277 718 -295 q 683 -231 683 -259 l 683 161 q 552 30 625 75 q 394 -13 479 -13 m 402 30 q 493 46 451 30 q 571 89 536 62 q 635 152 607 116 q 683 227 663 188 l 683 477 q 652 557 679 519 q 587 625 626 595 q 502 671 548 654 q 413 688 456 688 q 291 660 347 688 q 195 585 236 632 q 131 479 154 538 q 109 358 109 419 q 131 234 109 293 q 193 129 154 175 q 285 57 231 84 q 402 30 338 30 "},"b":{"x_min":111.125,"x_max":780.625,"ha":843,"o":"m 433 -13 q 350 -1 391 -13 q 272 32 309 11 q 206 83 236 54 q 155 147 176 112 l 155 0 l 111 0 l 111 1013 l 158 1013 l 158 558 q 281 684 211 636 q 447 733 352 733 q 586 700 525 733 q 691 613 648 666 q 757 493 734 561 q 780 358 780 426 q 754 217 780 284 q 680 98 727 150 q 570 16 633 47 q 433 -13 506 -13 m 427 30 q 550 59 494 30 q 646 133 605 87 q 709 238 687 179 q 732 358 732 297 q 710 481 732 422 q 650 587 688 541 q 558 661 612 633 q 440 688 504 688 q 348 672 391 688 q 269 627 305 655 q 205 563 233 600 q 158 487 177 527 l 158 236 q 189 156 162 194 q 256 90 216 119 q 341 46 295 62 q 427 30 387 30 "},"D":{"x_min":136.125,"x_max":922.296875,"ha":997,"o":"m 136 0 l 136 986 l 456 986 q 661 947 573 986 q 806 841 748 908 q 893 685 863 775 q 922 494 922 595 q 889 290 922 381 q 796 135 857 200 q 650 35 736 70 q 456 0 563 0 l 136 0 m 875 494 q 847 673 875 591 q 766 815 819 755 q 635 908 713 875 q 456 941 556 941 l 183 941 l 183 44 l 456 44 q 638 78 559 44 q 769 172 716 112 q 848 316 822 233 q 875 494 875 398 "},"∙":{"x_min":97.234375,"x_max":140.28125,"ha":238,"o":"m 97 345 l 97 472 l 140 472 l 140 345 l 97 345 "},"z":{"x_min":41.671875,"x_max":629.21875,"ha":672,"o":"m 41 38 l 573 682 l 50 682 l 50 722 l 629 722 l 629 683 l 98 40 l 625 40 l 625 0 l 41 0 l 41 38 "},"ˆ":{"x_min":66.671875,"x_max":365.3125,"ha":431,"o":"m 66 907 l 197 1013 l 233 1013 l 365 907 l 333 886 l 215 973 l 97 886 l 66 907 "},"w":{"x_min":31.953125,"x_max":1080.640625,"ha":1111,"o":"m 1032 722 l 1080 722 l 766 0 l 726 0 l 555 394 l 386 0 l 345 0 l 31 722 l 79 722 l 366 56 l 530 436 l 408 720 l 452 720 l 555 477 l 658 720 l 702 720 l 581 436 l 744 56 l 1032 722 "},"$":{"x_min":52.78125,"x_max":788.953125,"ha":845,"o":"m 705 840 q 588 922 652 898 q 438 948 525 947 l 438 513 q 584 477 519 497 q 694 428 648 458 q 764 354 740 398 q 788 245 788 311 q 763 136 788 183 q 693 58 738 90 q 584 9 648 26 q 440 -6 519 -6 l 440 -133 l 405 -133 l 405 -5 q 212 35 298 -1 q 52 143 126 72 l 80 177 q 224 75 144 111 q 406 34 304 40 l 406 475 q 269 508 329 490 q 168 554 209 526 q 106 622 127 581 q 86 722 86 662 q 172 916 86 847 q 405 991 259 984 l 405 1132 l 440 1132 l 440 993 q 602 963 531 991 q 732 876 673 936 l 705 840 m 738 240 q 720 327 738 291 q 665 388 702 362 q 571 433 627 415 q 438 468 515 451 l 438 34 q 657 86 576 34 q 738 240 738 137 m 134 729 q 150 647 134 680 q 200 591 166 615 q 284 552 233 568 q 406 520 336 536 l 406 947 q 198 883 262 941 q 134 729 134 825 "},"™":{"x_min":81.953125,"x_max":820.90625,"ha":935,"o":"m 384 950 l 252 950 l 252 597 l 213 597 l 213 950 l 81 950 l 81 988 l 384 988 l 384 950 m 772 986 l 820 986 l 820 597 l 782 597 l 782 920 l 651 655 l 618 655 l 487 920 l 487 597 l 448 597 l 448 986 l 495 986 l 634 704 l 772 986 "},"\\":{"x_min":38.890625,"x_max":700.0625,"ha":742,"o":"m 95 986 l 700 0 l 644 0 l 38 986 l 95 986 "},"~":{"x_min":98.625,"x_max":569.484375,"ha":667,"o":"m 98 344 q 105 367 98 348 q 127 408 112 386 q 166 447 143 430 q 225 465 190 465 q 280 452 254 465 q 331 423 306 438 q 382 395 356 408 q 436 381 408 381 q 479 392 461 381 q 510 416 498 402 q 527 442 522 430 q 533 456 533 454 l 569 455 q 563 436 569 454 q 541 398 556 419 q 499 361 525 377 q 436 344 473 344 q 374 357 402 344 q 319 386 345 370 q 269 414 293 401 q 223 427 245 427 q 184 415 201 427 q 156 387 168 402 q 140 359 145 372 q 134 344 134 345 l 98 344 l 98 344 "},"-":{"x_min":97.234375,"x_max":494.484375,"ha":592,"o":"m 97 354 l 97 400 l 494 400 l 494 354 l 97 354 "},"Q":{"x_min":70.84375,"x_max":990.359375,"ha":1061,"o":"m 812 100 q 682 21 754 50 q 530 -6 611 -6 q 343 36 427 -6 q 198 148 259 79 q 104 308 137 218 q 70 493 70 398 q 106 682 70 591 q 203 841 141 772 q 349 952 265 911 q 531 993 433 993 q 718 949 633 993 q 863 834 802 905 q 957 674 923 763 q 990 493 990 584 q 950 293 990 387 q 843 127 911 198 l 947 0 l 894 0 l 812 100 m 530 38 q 669 64 605 38 q 784 134 733 90 l 675 270 l 727 270 l 813 163 q 909 316 876 230 q 943 493 943 402 q 911 663 943 581 q 825 809 880 745 q 694 909 769 872 q 530 947 619 947 q 361 907 437 947 q 231 804 286 868 q 147 659 177 740 q 118 493 118 577 q 148 322 118 404 q 234 177 179 240 q 364 76 288 113 q 530 38 440 38 "},"M":{"x_min":136.125,"x_max":1093.140625,"ha":1229,"o":"m 1045 0 l 1045 891 l 630 191 l 598 191 l 183 891 l 183 0 l 136 0 l 136 986 l 180 986 l 615 251 l 1048 986 l 1093 986 l 1093 0 l 1045 0 "},"C":{"x_min":69.453125,"x_max":918.125,"ha":970,"o":"m 69 500 q 100 676 69 588 q 190 834 131 763 q 336 947 250 904 q 534 991 423 991 q 759 931 666 991 q 895 776 851 870 l 854 757 q 789 845 826 809 q 709 904 752 882 q 620 936 666 926 q 529 945 575 945 q 353 906 430 945 q 223 802 276 866 q 143 658 170 738 q 116 495 116 577 q 148 322 116 405 q 236 175 180 238 q 369 75 293 112 q 533 37 445 37 q 629 49 580 37 q 725 85 679 61 q 809 147 770 109 q 876 237 848 184 l 918 220 q 850 122 893 165 q 754 50 807 79 q 643 6 701 20 q 527 -8 584 -8 q 343 36 427 -8 q 197 152 258 80 q 103 314 137 223 q 69 500 69 405 "},"[":{"x_min":125.015625,"x_max":243.078125,"ha":307,"o":"m 125 -55 l 125 1027 l 243 1027 l 243 984 l 170 984 l 170 -12 l 243 -12 l 243 -55 l 125 -55 "},"L":{"x_min":136.125,"x_max":788.953125,"ha":821,"o":"m 136 0 l 136 986 l 183 986 l 183 44 l 788 44 l 788 0 l 136 0 "},"!":{"x_min":129.171875,"x_max":176.40625,"ha":306,"o":"m 129 288 l 129 995 l 176 995 l 176 288 l 129 288 m 129 0 l 129 127 l 176 127 l 176 0 l 129 0 "}," ":{"x_min":0,"x_max":0,"ha":368},"{":{"x_min":83.34375,"x_max":250.015625,"ha":313,"o":"m 173 984 l 173 580 q 172 566 173 575 q 168 545 172 556 q 159 521 165 533 q 141 500 152 509 q 168 454 163 480 q 173 419 173 429 l 173 0 l 250 0 l 250 -43 l 161 -43 q 139 -34 150 -43 q 129 -1 129 -25 l 129 412 q 118 456 129 436 q 83 480 108 477 l 83 522 q 106 530 97 522 q 120 549 115 538 q 127 570 126 559 q 129 587 129 581 l 129 986 q 141 1020 129 1013 q 161 1027 154 1027 l 250 1027 l 250 984 l 173 984 "},"X":{"x_min":12.5,"x_max":854.234375,"ha":867,"o":"m 69 986 l 433 522 l 798 986 l 854 986 l 461 486 l 843 0 l 787 0 l 433 450 l 80 0 l 23 0 l 405 486 l 12 986 l 69 986 "},"P":{"x_min":136.125,"x_max":820.90625,"ha":864,"o":"m 136 0 l 136 986 l 538 986 q 652 959 600 986 q 741 891 704 933 q 800 794 779 848 q 820 684 820 740 q 801 571 820 626 q 745 474 782 516 q 659 406 709 431 q 548 380 609 380 l 183 380 l 183 0 l 136 0 m 183 425 l 547 425 q 641 447 600 425 q 712 506 683 469 q 757 589 741 543 q 773 684 773 636 q 754 781 773 734 q 704 863 736 827 q 629 920 672 898 q 537 941 586 941 l 183 941 l 183 425 "},"%":{"x_min":68.0625,"x_max":890.34375,"ha":957,"o":"m 263 612 q 187 627 223 612 q 125 668 151 643 q 83 729 98 694 q 68 805 68 765 q 83 881 68 845 q 125 943 98 916 q 187 984 151 969 q 263 1000 223 1000 q 340 984 304 1000 q 402 943 376 969 q 444 881 429 916 q 459 805 459 845 q 444 729 459 765 q 402 668 429 694 q 340 627 376 643 q 263 612 304 612 m 263 647 q 325 660 297 647 q 375 695 354 673 q 407 745 395 716 q 419 805 419 773 q 406 868 419 838 q 372 918 394 897 q 322 951 351 938 q 263 963 294 963 q 202 950 230 963 q 152 916 173 937 q 120 865 131 894 q 108 805 108 836 q 120 743 108 772 q 154 693 133 715 q 203 659 175 672 q 263 647 231 647 m 694 -13 q 618 1 654 -13 q 554 43 581 16 q 512 104 527 69 q 497 180 497 140 q 512 256 497 220 q 554 317 527 291 q 618 358 581 343 q 694 373 654 373 q 770 358 734 373 q 833 317 807 343 q 875 256 859 291 q 890 180 890 220 q 875 104 890 140 q 833 43 859 69 q 770 1 807 16 q 694 -13 734 -13 m 694 22 q 754 34 726 22 q 804 69 783 47 q 837 120 825 91 q 850 180 850 148 q 837 241 850 212 q 803 292 825 270 q 753 326 782 313 q 694 338 725 338 q 632 325 661 338 q 583 291 604 312 q 550 240 562 269 q 537 180 537 211 q 550 118 537 147 q 584 68 562 88 q 634 34 605 47 q 694 22 662 22 m 76 22 l 463 504 l 848 988 l 879 965 l 490 480 l 106 -2 l 76 22 "},"#":{"x_min":56.953125,"x_max":866.734375,"ha":921,"o":"m 866 658 l 697 658 l 620 343 l 809 343 l 809 301 l 611 301 l 538 0 l 494 0 l 568 301 l 255 301 l 183 0 l 138 0 l 213 301 l 56 301 l 56 343 l 223 343 l 300 658 l 112 658 l 112 698 l 309 698 l 379 986 l 423 986 l 352 698 l 665 698 l 734 986 l 779 986 l 708 698 l 866 698 l 866 658 m 579 343 l 655 658 l 341 658 l 266 343 l 579 343 "},"_":{"x_min":29.171875,"x_max":570.875,"ha":600,"o":"m 29 -44 l 29 0 l 570 0 l 570 -44 l 29 -44 "},"+":{"x_min":77.78125,"x_max":498.65625,"ha":576,"o":"m 498 513 l 498 472 l 311 472 l 311 269 l 265 269 l 265 472 l 77 472 l 77 513 l 265 513 l 265 716 l 311 716 l 311 513 l 498 513 "},")":{"x_min":50,"x_max":275.015625,"ha":343,"o":"m 275 479 q 225 221 275 351 q 87 -40 176 91 l 51 -18 q 183 237 136 106 q 230 475 230 368 q 214 610 230 538 q 172 750 198 682 q 113 882 145 819 q 50 991 81 944 l 87 1013 q 160 883 126 948 q 220 752 194 818 q 260 618 245 686 q 275 479 275 550 "},"'":{"x_min":77.78125,"x_max":120.84375,"ha":199,"o":"m 77 880 l 77 988 l 120 988 l 120 880 l 77 880 "},"}":{"x_min":63.890625,"x_max":229.1875,"ha":313,"o":"m 63 984 l 63 1027 l 152 1027 q 171 1020 158 1027 q 184 986 184 1013 l 184 587 q 186 570 184 581 q 192 549 187 559 q 205 530 197 538 q 229 522 213 522 l 229 480 q 194 456 204 477 q 184 412 184 436 l 184 -1 q 174 -34 184 -25 q 152 -43 163 -43 l 63 -43 l 63 0 l 140 0 l 140 419 q 144 454 140 429 q 170 500 148 480 q 153 521 159 509 q 144 545 147 533 q 140 566 141 556 q 140 580 140 575 l 140 984 l 63 984 "},"˛":{"x_min":69.453125,"x_max":219.46875,"ha":297,"o":"m 151 -227 q 90 -194 111 -218 q 69 -137 69 -170 q 99 -63 69 -100 q 198 20 129 -26 l 219 0 q 131 -70 156 -41 q 105 -130 105 -100 q 170 -195 105 -183 l 151 -227 l 151 -227 "},"a":{"x_min":50,"x_max":655.609375,"ha":739,"o":"m 286 -13 q 193 3 236 -13 q 118 50 150 20 q 68 120 86 80 q 50 208 50 161 q 72 292 50 254 q 134 358 94 330 q 228 401 173 386 q 350 416 283 416 q 472 406 409 416 q 583 377 534 397 l 583 455 q 521 628 583 563 q 355 693 459 693 q 243 670 302 693 q 123 604 184 647 l 101 638 q 358 733 241 733 q 557 658 484 733 q 630 452 630 583 l 630 75 q 655 44 630 44 l 655 0 q 644 -1 651 -1 q 603 15 620 -1 q 586 58 586 33 l 586 122 q 457 21 537 56 q 286 -13 377 -13 m 293 26 q 452 59 380 26 q 561 147 525 91 q 583 202 583 176 l 583 338 q 352 380 476 380 q 167 334 237 380 q 97 209 97 287 q 112 137 97 170 q 153 79 127 104 q 215 40 179 54 q 293 26 251 26 "},"T":{"x_min":30.5625,"x_max":818.125,"ha":849,"o":"m 818 941 l 448 941 l 448 0 l 400 0 l 400 941 l 30 941 l 30 986 l 818 986 l 818 941 "},"=":{"x_min":102.78125,"x_max":513.9375,"ha":617,"o":"m 102 305 l 102 345 l 513 345 l 513 305 l 102 305 m 102 420 l 102 461 l 513 461 l 513 420 l 102 420 "},"N":{"x_min":136.125,"x_max":944.515625,"ha":1081,"o":"m 183 894 l 183 0 l 136 0 l 136 986 l 172 986 l 897 76 l 897 984 l 944 984 l 944 0 l 897 0 l 183 894 "},"˚":{"x_min":81.953125,"x_max":252.796875,"ha":335,"o":"m 81 932 q 106 991 81 968 q 166 1013 130 1013 q 228 991 204 1013 q 252 932 252 968 q 228 872 252 895 q 166 848 204 848 q 106 872 130 848 q 81 932 81 895 m 166 987 q 127 972 143 987 q 111 932 111 957 q 127 891 111 908 q 166 875 143 875 q 206 891 188 875 q 223 932 223 907 q 206 972 223 957 q 166 987 190 987 "},"2":{"x_min":79.171875,"x_max":636.15625,"ha":715,"o":"m 79 0 q 85 79 79 31 q 115 178 91 126 q 185 279 138 230 q 313 365 231 329 q 397 400 352 381 q 481 445 443 419 q 546 507 520 472 q 572 594 572 543 q 559 654 572 625 q 519 708 545 684 q 452 747 493 732 q 358 762 412 762 q 268 747 308 762 q 198 711 227 732 q 151 671 169 691 q 126 643 133 651 l 91 675 q 113 698 94 677 q 168 743 133 719 q 252 787 202 768 q 363 807 301 807 q 474 788 426 807 q 554 741 522 770 q 604 674 587 712 q 620 597 620 636 q 593 494 620 536 q 525 423 565 452 q 437 374 484 394 q 352 337 390 354 q 247 268 290 309 q 179 185 205 227 q 142 104 154 143 q 129 44 130 66 l 636 44 l 636 0 l 79 0 "},"j":{"x_min":-179.1875,"x_max":158.34375,"ha":269,"o":"m -34 -240 q -113 -229 -76 -240 q -179 -191 -151 -219 l -150 -161 q -96 -188 -126 -181 q -38 -195 -66 -195 q 15 -184 -11 -195 q 63 -152 43 -172 q 97 -104 84 -131 q 111 -45 111 -77 l 111 722 l 158 722 l 158 -44 q 140 -123 158 -87 q 96 -185 123 -159 q 34 -225 69 -211 q -34 -240 0 -240 m 111 897 l 111 1013 l 158 1013 l 158 897 l 111 897 "},"Z":{"x_min":40.28125,"x_max":826.453125,"ha":868,"o":"m 40 41 l 769 941 l 48 941 l 48 986 l 826 986 l 826 944 l 100 44 l 822 44 l 822 0 l 40 0 l 40 41 "},"":{"x_min":62.5,"x_max":127.78125,"ha":181,"o":"m 62 -177 q 84 -158 84 -177 l 84 -69 l 127 -69 l 127 -155 q 110 -197 127 -184 q 62 -211 93 -211 l 62 -177 "},"u":{"x_min":102.78125,"x_max":715.328125,"ha":806,"o":"m 334 -13 q 161 68 219 -13 q 102 311 102 150 l 102 722 l 150 722 l 150 316 q 344 30 150 30 q 440 47 393 30 q 527 95 487 65 q 596 169 566 126 q 643 263 626 212 l 643 722 l 690 722 l 690 75 q 715 44 690 44 l 715 0 q 707 -1 711 -1 q 701 -1 704 -1 q 661 18 677 -1 q 645 58 645 37 l 645 177 q 515 37 598 88 q 334 -13 431 -13 "},"1":{"x_min":65.28125,"x_max":518.09375,"ha":549,"o":"m 518 44 l 518 0 l 95 0 l 95 44 l 293 44 l 293 727 q 254 691 281 711 q 195 653 227 670 q 127 623 162 636 q 65 611 93 611 l 65 661 q 140 680 101 661 q 213 723 180 700 q 269 768 247 747 q 293 793 291 790 l 341 793 l 341 44 l 518 44 "},"˜":{"x_min":69.453125,"x_max":470.875,"ha":542,"o":"m 351 911 q 297 919 320 911 q 254 937 275 927 q 216 955 234 947 q 176 963 198 963 q 140 954 154 963 q 119 934 126 945 q 109 911 112 922 q 106 897 106 900 l 69 897 q 72 918 69 901 q 88 954 76 936 q 121 986 100 972 q 179 1001 143 1001 q 227 993 206 1001 q 267 974 248 984 q 306 955 286 963 q 352 947 326 947 q 397 957 381 947 q 422 978 413 966 q 432 1000 430 990 q 434 1013 434 1011 l 470 1013 q 466 991 470 1008 q 450 957 462 975 q 413 925 437 938 q 351 911 390 911 "},"k":{"x_min":111.125,"x_max":691.71875,"ha":711,"o":"m 637 0 l 343 400 l 158 231 l 158 0 l 111 0 l 111 1013 l 158 1013 l 158 287 l 625 719 l 683 719 l 375 430 l 691 0 l 637 0 "},"ˇ":{"x_min":66.671875,"x_max":365.3125,"ha":431,"o":"m 97 1013 l 215 926 l 333 1013 l 365 994 l 233 886 l 197 886 l 66 994 l 97 1013 "},"€":{"x_min":47.21875,"x_max":1052.859375,"ha":1131,"o":"m 208 562 q 253 720 218 643 q 347 858 288 798 q 487 954 406 918 q 669 991 568 991 q 893 931 801 991 q 1030 776 986 870 l 988 757 q 924 845 961 809 q 844 904 887 882 q 755 936 801 926 q 663 945 709 945 q 503 913 575 945 q 380 828 431 882 q 297 705 329 775 q 255 562 265 636 l 780 562 l 763 526 l 252 526 q 250 511 250 519 q 250 494 250 502 q 251 463 250 479 q 255 431 252 447 l 726 431 l 709 394 l 262 394 q 315 254 277 319 q 406 141 352 190 q 526 65 459 93 q 668 37 593 37 q 764 49 715 37 q 859 85 813 61 q 944 147 905 109 q 1011 237 983 184 l 1052 220 q 984 122 1027 165 q 888 50 941 79 q 777 6 836 20 q 662 -8 719 -8 q 502 25 576 -8 q 369 113 427 58 q 271 242 311 169 q 215 394 231 315 l 47 394 l 63 431 l 208 431 q 204 468 205 448 q 204 526 204 488 l 98 526 l 115 562 l 208 562 "},"<":{"x_min":48.609375,"x_max":627.828125,"ha":701,"o":"m 48 375 l 627 722 l 627 670 l 116 359 l 627 47 l 627 -4 l 48 343 l 48 375 "},"t":{"x_min":37.5,"x_max":415.3125,"ha":425,"o":"m 415 33 q 400 25 412 31 q 370 11 388 19 q 327 -1 351 4 q 273 -6 302 -6 q 222 1 247 -6 q 180 25 198 9 q 151 62 162 40 q 140 112 140 84 l 140 680 l 37 680 l 37 722 l 140 722 l 140 970 l 187 970 l 187 722 l 359 722 l 359 680 l 187 680 l 187 119 q 218 58 190 79 q 281 37 245 37 q 324 42 304 37 q 360 53 344 47 q 385 65 376 59 q 397 72 394 70 l 415 33 "},"W":{"x_min":25,"x_max":1422.34375,"ha":1447,"o":"m 519 977 l 568 977 l 722 613 l 877 977 l 925 977 l 750 570 l 972 56 l 1369 986 l 1422 986 l 997 0 l 950 0 l 723 525 l 495 0 l 450 0 l 25 986 l 76 986 l 473 56 l 694 570 l 519 977 "},"v":{"x_min":31.953125,"x_max":694.5,"ha":726,"o":"m 340 0 l 31 722 l 81 722 l 363 54 l 645 722 l 694 722 l 386 0 l 340 0 "},">":{"x_min":72.234375,"x_max":652.828125,"ha":701,"o":"m 652 343 l 72 -4 l 72 47 l 584 359 l 72 670 l 72 722 l 652 375 l 652 343 "},"s":{"x_min":48.609375,"x_max":604.21875,"ha":661,"o":"m 331 -13 q 176 13 248 -13 q 48 100 104 41 l 75 131 q 194 52 133 79 q 330 26 255 26 q 494 69 431 26 q 556 190 556 112 q 541 250 556 226 q 494 292 525 275 q 418 322 463 309 q 315 350 373 336 q 211 377 255 363 q 138 408 168 390 q 95 454 109 426 q 81 525 81 481 q 102 618 81 579 q 159 682 123 657 q 240 720 194 708 q 340 733 287 733 q 491 704 427 733 q 583 630 554 675 l 551 607 q 461 670 520 648 q 336 693 402 693 q 255 684 293 693 q 189 654 218 675 q 144 604 161 634 q 127 531 127 573 q 138 476 127 498 q 174 439 150 454 q 235 414 198 425 q 325 391 272 404 q 443 361 391 376 q 530 325 494 345 q 585 273 566 304 q 604 195 604 243 q 584 109 604 147 q 529 43 565 70 q 443 0 494 15 q 331 -13 393 -13 "},"B":{"x_min":136.125,"x_max":850.0625,"ha":920,"o":"m 850 255 q 829 156 850 202 q 775 75 809 109 q 693 20 740 40 q 594 0 647 0 l 136 0 l 136 986 l 583 986 q 676 963 634 986 q 747 906 718 941 q 792 825 776 870 q 808 734 808 780 q 770 597 808 659 q 666 505 732 534 q 742 468 708 493 q 800 411 776 444 q 837 338 825 377 q 850 255 850 298 m 801 259 q 786 341 801 301 q 745 410 772 380 q 683 458 719 440 q 604 476 647 476 l 183 476 l 183 44 l 594 44 q 675 62 637 44 q 741 111 713 80 q 785 180 769 141 q 801 259 801 219 m 183 941 l 183 519 l 565 519 q 643 537 608 519 q 705 585 679 555 q 746 652 732 615 q 761 730 761 690 q 747 810 761 772 q 708 877 733 848 q 649 924 683 907 q 573 941 615 941 l 183 941 "},"?":{"x_min":50,"x_max":601.4375,"ha":657,"o":"m 238 258 q 247 359 238 318 q 271 430 255 401 q 309 477 287 459 q 358 511 330 495 q 424 544 388 527 q 489 586 459 561 q 538 647 519 611 q 558 741 558 684 q 539 837 558 797 q 490 904 520 877 q 420 943 459 930 q 338 955 380 955 q 189 913 258 955 q 86 800 120 870 l 50 819 q 100 895 69 862 q 170 952 131 929 q 251 986 208 975 q 338 998 294 998 q 436 982 388 998 q 520 932 484 965 q 579 851 556 900 q 601 737 601 802 q 581 636 601 676 q 532 569 562 597 q 465 522 502 541 q 391 483 427 502 q 348 455 368 470 q 313 416 329 440 q 290 354 298 391 q 281 258 281 316 l 238 258 m 238 0 l 238 126 l 283 126 l 283 0 l 238 0 "},"H":{"x_min":136.125,"x_max":887.578125,"ha":1022,"o":"m 887 986 l 887 0 l 838 0 l 838 481 l 183 481 l 183 0 l 136 0 l 136 986 l 183 986 l 183 526 l 838 526 l 838 986 l 887 986 "},"c":{"x_min":62.5,"x_max":700.0625,"ha":754,"o":"m 62 363 q 88 509 62 441 q 162 626 115 576 q 274 704 209 676 q 413 733 338 733 q 581 689 508 733 q 691 569 654 645 l 644 552 q 547 652 611 616 q 409 688 484 688 q 292 663 347 688 q 196 595 237 638 q 132 491 155 551 q 109 363 109 431 q 134 235 109 295 q 199 129 158 175 q 295 56 240 83 q 411 30 350 30 q 491 42 451 30 q 563 73 530 54 q 621 118 597 93 q 654 173 645 144 l 700 159 q 659 90 687 122 q 593 35 632 58 q 509 0 555 12 q 415 -13 463 -13 q 277 15 341 -13 q 165 97 213 45 q 90 217 118 148 q 62 363 62 286 "},"&":{"x_min":72.234375,"x_max":883.40625,"ha":901,"o":"m 819 0 l 682 143 q 550 29 627 72 q 376 -13 472 -13 q 263 3 318 -13 q 165 53 208 20 q 97 133 123 86 q 72 241 72 180 q 90 333 72 291 q 139 411 108 375 q 211 480 170 448 q 300 544 252 512 q 229 623 258 588 q 181 687 200 658 q 156 742 163 716 q 148 793 148 768 q 166 871 148 834 q 217 936 184 908 q 293 982 250 965 q 386 998 336 998 q 470 984 431 998 q 538 945 509 970 q 584 887 568 920 q 600 816 600 854 q 580 736 600 773 q 527 666 561 700 q 452 601 494 633 q 363 538 409 569 l 680 211 q 730 334 712 268 q 748 472 748 401 l 791 472 q 770 318 791 393 q 709 180 750 243 l 883 0 l 819 0 m 381 26 q 536 65 468 26 q 654 172 605 105 l 327 515 q 246 456 284 486 q 179 393 208 426 q 134 321 151 359 q 118 238 118 283 q 141 145 118 184 q 203 79 165 105 q 288 39 241 52 q 381 26 336 26 m 194 793 q 200 754 194 775 q 220 708 205 734 q 263 647 236 682 q 336 568 291 613 q 426 631 386 601 q 495 690 466 661 q 538 749 523 719 q 554 813 554 779 q 506 916 554 876 q 384 957 458 957 q 309 943 344 957 q 249 908 275 930 q 209 856 223 886 q 194 793 194 826 "},"−":{"x_min":102.78125,"x_max":662.546875,"ha":767,"o":"m 102 365 l 102 406 l 662 406 l 662 365 l 102 365 "},"˝":{"x_min":66.671875,"x_max":361.140625,"ha":425,"o":"m 97 886 l 66 904 l 152 1013 l 212 1013 l 97 886 m 247 886 l 215 904 l 301 1013 l 361 1013 l 247 886 "},"I":{"x_min":136.125,"x_max":183.34375,"ha":319,"o":"m 136 0 l 136 984 l 183 984 l 183 0 l 136 0 "},"ə":{"x_min":45.84375,"x_max":743.109375,"ha":806,"o":"m 397 -13 q 259 15 323 -13 q 148 95 195 44 q 73 213 101 145 q 45 358 45 280 q 46 369 45 361 q 47 379 47 377 l 694 379 q 663 502 690 445 q 596 602 637 559 q 502 668 555 644 q 388 691 448 691 q 311 681 348 691 q 240 651 273 670 q 181 605 206 632 q 141 547 155 579 l 98 558 q 143 627 113 595 q 212 683 173 659 q 297 720 251 707 q 391 733 343 733 q 529 703 465 733 q 641 621 593 673 q 716 500 688 569 q 743 354 743 431 q 716 211 743 277 q 643 94 690 144 q 534 15 597 44 q 397 -13 470 -13 m 397 26 q 511 50 458 26 q 603 115 563 73 q 667 215 643 158 q 695 341 691 273 l 94 341 q 123 214 98 272 q 188 115 148 156 q 282 50 229 73 q 397 26 336 26 "},"G":{"x_min":70.84375,"x_max":922.296875,"ha":1011,"o":"m 877 161 q 534 -6 730 -6 q 347 36 433 -6 q 201 151 262 80 q 105 311 140 222 q 70 493 70 401 q 104 680 70 590 q 197 840 137 770 q 339 951 256 909 q 520 993 422 993 q 655 977 595 993 q 761 932 715 961 q 840 864 807 904 q 897 777 873 825 l 857 757 q 716 902 802 858 q 520 947 630 947 q 352 907 427 947 q 225 804 277 868 q 145 659 173 740 q 118 493 118 577 q 150 320 118 402 q 239 176 183 238 q 372 76 295 113 q 536 38 448 38 q 714 81 630 38 q 877 218 798 125 l 877 431 l 650 431 l 650 473 l 922 473 l 922 0 l 877 0 l 877 161 "},"(":{"x_min":69.453125,"x_max":293.078125,"ha":343,"o":"m 69 479 q 84 618 69 550 q 124 752 98 686 q 184 883 150 818 q 256 1013 218 948 l 293 991 q 229 882 261 944 q 171 750 197 819 q 129 610 145 682 q 113 475 113 538 q 160 237 113 368 q 293 -18 206 106 l 256 -40 q 118 221 166 91 q 69 479 69 351 "},"`":{"x_min":69.453125,"x_max":218.078125,"ha":285,"o":"m 69 1013 l 130 1013 l 218 904 l 184 886 l 69 1013 "},"U":{"x_min":120.84375,"x_max":934.796875,"ha":1054,"o":"m 526 38 q 702 78 632 38 q 812 181 772 118 q 869 327 852 245 q 886 491 886 408 l 886 986 l 934 986 l 934 491 q 913 302 934 393 q 845 143 893 212 q 719 34 797 75 q 527 -6 641 -6 q 332 36 411 -6 q 206 149 254 79 q 140 309 159 219 q 120 491 120 398 l 120 986 l 168 986 l 168 491 q 184 324 168 405 q 243 179 201 243 q 353 77 284 116 q 526 38 422 38 "},"F":{"x_min":136.125,"x_max":773.671875,"ha":824,"o":"m 136 0 l 136 986 l 773 986 l 773 941 l 183 941 l 183 525 l 686 525 l 686 481 l 183 481 l 183 0 l 136 0 "},"r":{"x_min":111.125,"x_max":434.75,"ha":463,"o":"m 434 677 q 261 614 334 673 q 158 454 187 555 l 158 0 l 111 0 l 111 722 l 156 722 l 156 538 q 256 663 194 615 q 390 720 319 712 q 415 721 404 720 q 434 722 426 722 l 434 677 "},":":{"x_min":98.625,"x_max":141.671875,"ha":242,"o":"m 98 615 l 98 718 l 141 718 l 141 615 l 98 615 m 98 0 l 98 102 l 141 102 l 141 0 l 98 0 "},"x":{"x_min":23.609375,"x_max":651.4375,"ha":675,"o":"m 79 722 l 326 408 l 337 390 l 348 408 l 595 722 l 651 722 l 365 358 l 648 0 l 593 0 l 348 311 l 337 327 l 326 311 l 81 0 l 26 0 l 309 358 l 23 722 l 79 722 "},"*":{"x_min":94.453125,"x_max":337.53125,"ha":433,"o":"m 130 776 l 187 857 l 94 887 l 104 920 l 198 888 l 194 987 l 237 987 l 233 888 l 327 920 l 337 887 l 244 857 l 302 776 l 273 755 l 215 837 l 158 755 l 130 776 "},"∕":{"x_min":-13.890625,"x_max":795.890625,"ha":781,"o":"m -13 23 l 763 988 l 795 962 l 19 -2 l -13 23 "},"V":{"x_min":25,"x_max":918.125,"ha":943,"o":"m 75 986 l 472 59 l 866 986 l 918 986 l 494 0 l 448 0 l 25 986 l 75 986 "},"μ":{"x_min":111.125,"x_max":723.671875,"ha":814,"o":"m 111 722 l 158 722 l 158 316 q 352 30 158 30 q 448 47 401 30 q 535 95 495 65 q 604 169 575 126 q 651 263 634 212 l 651 722 l 698 722 l 698 75 q 723 44 698 44 l 723 0 q 716 -1 719 -1 q 709 -1 712 -1 q 670 16 686 -1 q 654 58 654 34 l 654 177 q 599 99 632 134 q 527 38 566 63 q 443 0 487 13 q 351 -13 398 -13 q 229 20 277 -13 q 156 122 180 55 l 156 -294 l 111 -294 l 111 722 "},"h":{"x_min":111.125,"x_max":684.78125,"ha":788,"o":"m 684 0 l 637 0 l 637 402 q 447 688 637 688 q 354 670 400 688 q 269 620 308 652 q 201 545 230 588 q 158 451 172 501 l 158 0 l 111 0 l 111 1013 l 158 1013 l 158 541 q 213 620 180 584 q 284 680 245 655 q 366 719 322 705 q 455 733 409 733 q 629 648 573 733 q 684 408 684 563 l 684 0 "},"0":{"x_min":84.734375,"x_max":770.890625,"ha":856,"o":"m 770 406 q 745 238 770 315 q 673 104 719 161 q 565 17 627 48 q 427 -13 502 -13 q 290 17 352 -13 q 181 104 227 48 q 110 238 136 161 q 84 406 84 315 q 110 575 84 498 q 181 709 136 652 q 290 797 227 765 q 427 829 352 829 q 565 797 502 829 q 673 709 627 765 q 745 575 719 652 q 770 406 770 498 m 722 406 q 700 559 722 490 q 640 679 679 629 q 547 756 601 729 q 427 783 493 783 q 307 756 362 783 q 213 679 252 729 q 153 559 175 629 q 131 406 131 490 q 153 254 131 323 q 213 135 175 184 q 307 59 252 86 q 427 31 362 31 q 547 59 493 31 q 640 135 601 86 q 700 254 679 184 q 722 406 722 323 "},".":{"x_min":97.234375,"x_max":140.28125,"ha":238,"o":"m 97 0 l 97 102 l 140 102 l 140 0 l 97 0 "},"ʼ":{"x_min":204.1875,"x_max":354.1875,"ha":503,"o":"m 237 886 l 204 904 l 259 975 l 262 1013 l 354 1013 l 237 886 "},"@":{"x_min":75,"x_max":1079.25,"ha":1140,"o":"m 581 837 q 775 797 684 837 q 933 685 865 757 q 1040 517 1001 613 q 1079 308 1079 420 q 1077 256 1079 288 q 1068 186 1075 223 q 1048 112 1061 150 q 1013 45 1034 75 q 959 -3 991 15 q 882 -22 926 -22 q 828 -11 848 -22 q 797 17 808 -1 q 782 61 786 36 q 775 113 777 86 q 731 75 757 93 q 675 43 705 56 q 611 22 645 30 q 541 13 577 13 q 392 64 447 13 q 337 194 337 115 q 359 278 337 244 q 418 333 381 312 q 499 362 454 354 q 590 370 544 370 q 702 359 652 370 q 775 338 751 347 q 766 440 775 394 q 738 519 758 486 q 683 570 718 552 q 595 588 648 588 q 492 571 543 588 q 397 522 441 554 l 377 554 q 481 606 426 586 q 598 626 536 626 q 711 601 669 626 q 776 536 754 576 q 805 447 798 497 q 812 345 812 397 l 812 143 q 825 46 812 80 q 884 12 837 12 q 962 43 932 12 q 1011 118 993 73 q 1036 215 1029 163 q 1044 309 1044 268 q 1008 502 1044 412 q 909 659 972 593 q 762 765 847 726 q 580 804 677 804 q 402 768 487 804 q 251 667 316 732 q 147 513 186 602 q 108 319 108 425 q 145 127 108 216 q 245 -27 181 38 q 393 -131 308 -93 q 577 -169 479 -169 q 788 -116 687 -169 l 804 -147 q 693 -188 750 -175 q 577 -202 636 -202 q 383 -162 475 -202 q 222 -52 291 -122 q 114 113 154 18 q 75 319 75 208 q 117 529 75 433 q 229 693 159 625 q 391 799 300 761 q 581 837 483 837 m 676 81 q 728 116 709 97 q 757 156 747 136 q 770 198 768 177 q 773 240 773 219 l 773 302 q 749 308 765 302 q 709 320 733 313 q 653 331 684 326 q 584 336 622 336 q 508 329 545 336 q 441 305 470 322 q 393 261 411 288 q 375 194 375 234 q 388 134 375 161 q 425 88 402 106 q 479 61 448 70 q 543 51 509 51 q 614 60 579 51 q 676 81 650 69 "},"f":{"x_min":43.0625,"x_max":480.59375,"ha":454,"o":"m 145 0 l 145 595 l 43 595 l 43 637 l 145 637 l 145 748 q 198 954 145 880 q 343 1027 251 1027 q 420 1014 383 1027 q 480 980 458 1001 l 456 950 q 410 975 438 965 q 350 984 381 984 q 233 924 273 984 q 193 748 193 863 l 193 637 l 404 637 l 404 595 l 193 595 l 193 0 l 145 0 "},";":{"x_min":94.453125,"x_max":158.34375,"ha":267,"o":"m 115 615 l 115 718 l 158 718 l 158 615 l 115 615 m 94 -19 q 115 2 115 -19 l 115 102 l 158 102 l 158 0 q 140 -45 158 -30 q 94 -59 122 -59 l 94 -19 "},"i":{"x_min":111.125,"x_max":158.34375,"ha":269,"o":"m 111 0 l 111 722 l 158 722 l 158 0 l 111 0 m 111 897 l 111 1013 l 158 1013 l 158 897 l 111 897 "},"6":{"x_min":81.953125,"x_max":775.0625,"ha":840,"o":"m 775 323 q 748 191 775 252 q 675 84 722 130 q 566 12 629 38 q 431 -13 504 -13 q 293 13 356 -13 q 181 90 229 40 q 108 213 134 141 q 81 377 81 286 q 107 652 81 536 q 180 843 133 768 q 293 956 227 919 q 436 993 358 993 q 613 939 536 993 q 725 794 691 886 l 687 772 q 592 900 661 851 q 437 948 523 948 q 311 914 368 948 q 215 816 255 880 q 152 657 175 751 q 130 443 130 563 q 176 531 145 491 q 247 599 206 570 q 336 643 287 627 q 438 659 386 659 q 569 633 508 659 q 676 561 630 607 q 748 454 722 515 q 775 323 775 393 m 433 30 q 547 53 494 30 q 641 115 601 76 q 705 209 682 155 q 729 322 729 262 q 705 436 729 381 q 641 529 682 490 q 546 593 600 569 q 433 616 493 616 q 318 593 372 616 q 223 529 263 569 q 159 436 183 490 q 136 323 136 383 q 159 210 136 263 q 224 117 183 156 q 318 54 265 77 q 433 30 372 30 "},"A":{"x_min":29.171875,"x_max":919.515625,"ha":947,"o":"m 29 0 l 454 986 l 494 986 l 919 0 l 866 0 l 720 340 l 226 340 l 80 0 l 29 0 m 475 925 l 240 381 l 705 381 l 475 925 "},"n":{"x_min":111.125,"x_max":684.78125,"ha":789,"o":"m 684 0 l 637 0 l 637 402 q 595 620 637 551 q 462 688 554 688 q 364 670 412 688 q 275 620 316 652 q 203 545 234 588 q 158 451 172 502 l 158 0 l 111 0 l 111 722 l 155 722 l 155 541 q 211 620 177 584 q 287 680 245 655 q 375 719 329 705 q 470 733 422 733 q 634 652 584 733 q 684 408 684 570 l 684 0 "},"O":{"x_min":70.84375,"x_max":990.359375,"ha":1061,"o":"m 530 -6 q 343 36 427 -6 q 198 148 259 79 q 104 308 137 218 q 70 493 70 398 q 106 682 70 591 q 203 841 141 772 q 349 952 265 911 q 531 993 433 993 q 718 949 633 993 q 863 834 802 905 q 957 674 923 763 q 990 493 990 584 q 954 302 990 393 q 857 143 919 212 q 711 34 795 75 q 530 -6 627 -6 m 118 493 q 148 322 118 404 q 234 177 179 240 q 364 76 288 113 q 530 38 440 38 q 699 78 623 38 q 829 181 775 118 q 913 327 883 245 q 943 493 943 409 q 911 663 943 581 q 825 809 880 745 q 694 909 769 872 q 530 947 619 947 q 361 907 437 947 q 231 804 286 868 q 147 659 177 740 q 118 493 118 577 "},"3":{"x_min":62.5,"x_max":657,"ha":728,"o":"m 443 327 q 598 243 540 313 q 657 69 657 172 q 634 -41 657 8 q 572 -127 612 -91 q 477 -184 533 -163 q 355 -204 422 -204 q 172 -157 251 -204 q 62 -31 94 -111 l 100 -6 q 193 -118 125 -76 q 356 -159 261 -159 q 541 -97 473 -159 q 609 72 609 -34 q 540 243 609 180 q 347 306 470 306 l 315 306 l 315 350 l 348 350 q 529 401 466 350 q 591 541 591 452 q 573 629 591 590 q 524 697 555 669 q 450 740 493 725 q 355 755 406 755 q 205 714 270 755 q 112 605 140 673 l 77 629 q 184 753 106 707 q 358 800 261 800 q 470 781 419 800 q 559 729 522 762 q 618 650 597 695 q 640 550 640 604 q 587 400 640 462 q 443 327 534 338 "},"]":{"x_min":63.890625,"x_max":181.953125,"ha":307,"o":"m 63 -55 l 63 -12 l 136 -12 l 136 984 l 63 984 l 63 1027 l 181 1027 l 181 -55 l 63 -55 "},"m":{"x_min":111.125,"x_max":1159.8125,"ha":1263,"o":"m 1159 0 l 1112 0 l 1112 402 q 1067 619 1112 550 q 929 688 1022 688 q 837 670 880 688 q 759 621 794 652 q 697 545 723 590 q 658 450 672 501 l 658 0 l 611 0 l 611 402 q 567 620 611 551 q 429 688 523 688 q 261 623 333 688 q 158 451 188 558 l 158 0 l 111 0 l 111 722 l 155 722 l 155 541 q 275 683 202 633 q 434 733 347 733 q 584 677 526 733 q 652 530 641 622 q 938 733 757 733 q 1107 650 1054 733 q 1159 408 1159 568 l 1159 0 "},"9":{"x_min":56.953125,"x_max":750.0625,"ha":818,"o":"m 56 455 q 83 587 56 526 q 156 694 109 648 q 265 766 202 740 q 400 793 327 793 q 538 766 475 793 q 650 688 602 738 q 723 565 697 637 q 750 401 750 493 q 723 127 750 243 q 650 -64 697 11 q 538 -177 604 -140 q 395 -213 473 -213 q 218 -160 295 -213 q 106 -15 140 -106 l 144 6 q 239 -120 170 -72 q 394 -169 308 -169 q 519 -135 462 -169 q 616 -36 576 -101 q 679 121 657 27 q 701 336 701 215 q 655 247 686 287 q 584 179 625 208 q 495 135 544 151 q 393 119 445 119 q 262 145 323 119 q 155 218 201 172 q 83 325 109 263 q 56 455 56 386 m 398 748 q 284 725 337 748 q 190 663 230 702 q 126 570 150 623 q 102 456 102 516 q 126 342 102 395 q 190 249 150 288 q 285 186 231 209 q 398 162 338 162 q 513 186 459 162 q 608 249 568 209 q 672 342 648 288 q 695 455 695 395 q 672 568 695 515 q 607 661 648 622 q 512 725 566 701 q 398 748 458 748 "},"l":{"x_min":118.0625,"x_max":341.6875,"ha":328,"o":"m 118 1013 l 163 1013 l 163 123 q 188 59 163 83 q 254 36 213 36 q 291 39 269 36 q 330 50 312 43 l 341 11 q 289 -1 320 4 q 236 -6 258 -6 q 150 25 183 -6 q 118 113 118 58 l 118 1013 "},"8":{"x_min":76.390625,"x_max":743.109375,"ha":822,"o":"m 743 265 q 716 151 743 202 q 642 64 688 100 q 534 9 595 29 q 405 -9 473 -9 q 270 13 330 -9 q 166 74 209 36 q 100 162 123 112 q 76 268 76 212 q 95 361 76 318 q 145 437 113 404 q 215 493 176 470 q 295 529 255 516 q 225 563 258 543 q 166 611 191 583 q 127 672 141 638 q 112 747 112 707 q 138 850 112 805 q 207 924 165 894 q 303 970 250 954 q 411 986 356 986 q 518 970 465 986 q 613 924 572 954 q 682 850 655 894 q 708 747 708 805 q 693 672 708 707 q 652 611 677 638 q 594 563 627 584 q 523 529 561 543 q 609 490 569 515 q 679 431 650 465 q 726 355 709 397 q 743 265 743 313 m 695 269 q 669 370 695 326 q 601 445 643 415 q 509 491 559 475 q 408 506 458 506 q 306 489 356 506 q 215 441 255 472 q 150 365 175 409 q 125 266 125 320 q 151 167 125 211 q 219 93 177 123 q 311 47 261 63 q 412 31 362 31 q 514 48 463 31 q 605 95 565 65 q 670 170 645 126 q 695 269 695 215 m 159 743 q 182 659 159 695 q 241 598 205 623 q 322 561 277 573 q 409 548 366 548 q 497 561 452 548 q 578 600 541 575 q 638 661 615 625 q 661 745 661 698 q 639 829 661 793 q 582 890 618 865 q 501 928 547 915 q 408 941 455 941 q 315 928 359 941 q 236 889 270 915 q 180 827 201 863 q 159 743 159 790 "},"p":{"x_min":111.125,"x_max":780.625,"ha":842,"o":"m 447 -13 q 357 0 400 -13 q 278 37 315 13 q 211 93 241 61 q 158 161 180 125 l 158 -295 l 111 -295 l 111 722 l 155 722 l 155 572 q 208 636 177 607 q 275 688 238 666 q 352 721 312 709 q 433 733 391 733 q 573 701 509 733 q 683 616 637 669 q 754 496 729 563 q 780 359 780 429 q 756 216 780 284 q 688 97 732 148 q 583 16 644 47 q 447 -13 522 -13 m 440 30 q 561 59 506 30 q 652 134 615 87 q 711 239 690 180 q 732 359 732 298 q 708 483 732 423 q 643 588 684 543 q 547 661 602 634 q 427 688 491 688 q 341 671 387 688 q 256 625 295 654 q 189 559 216 597 q 158 480 162 522 l 158 231 q 205 153 176 190 q 271 89 234 116 q 351 46 308 62 q 440 30 394 30 "},"4":{"x_min":29.171875,"x_max":693.109375,"ha":738,"o":"m 523 -176 l 523 91 l 29 91 l 29 131 l 537 793 l 570 793 l 570 136 l 693 136 l 693 91 l 570 91 l 570 -176 l 523 -176 m 86 136 l 526 136 l 526 713 l 86 136 "},"R":{"x_min":136.125,"x_max":829.234375,"ha":906,"o":"m 136 0 l 136 986 l 541 986 q 654 959 602 986 q 744 891 707 933 q 802 794 782 848 q 823 684 823 740 q 806 576 823 627 q 756 484 788 525 q 679 418 723 444 q 580 386 634 391 l 829 0 l 773 0 l 527 380 l 183 380 l 183 0 l 136 0 m 183 425 l 550 425 q 643 447 601 425 q 713 505 684 469 q 759 588 743 541 q 775 684 775 636 q 756 781 775 734 q 705 863 737 827 q 631 920 673 898 q 540 941 588 941 l 183 941 l 183 425 "},"o":{"x_min":62.5,"x_max":758.390625,"ha":820,"o":"m 409 -13 q 272 15 336 -13 q 162 96 209 45 q 88 215 115 147 q 62 358 62 283 q 89 502 62 434 q 163 622 116 570 q 274 703 211 673 q 409 733 337 733 q 545 703 481 733 q 656 622 609 673 q 731 502 704 570 q 758 358 758 434 q 731 215 758 283 q 656 96 704 147 q 545 15 609 45 q 409 -13 481 -13 m 109 356 q 133 230 109 290 q 197 126 156 170 q 292 56 237 81 q 408 30 347 30 q 524 56 469 30 q 620 127 579 83 q 685 232 661 172 q 709 359 709 293 q 685 486 709 426 q 620 591 661 547 q 525 662 579 636 q 409 688 470 688 q 294 662 348 688 q 199 591 240 636 q 134 485 158 545 q 109 356 109 425 "},"5":{"x_min":59.734375,"x_max":702.828125,"ha":763,"o":"m 383 427 q 507 404 450 427 q 609 340 565 381 q 677 240 652 298 q 702 115 702 183 q 676 -16 702 43 q 604 -118 650 -76 q 498 -184 558 -161 q 372 -206 438 -206 q 272 -192 319 -206 q 184 -152 225 -177 q 111 -89 143 -126 q 59 -8 80 -52 l 100 5 q 210 -115 137 -69 q 372 -162 283 -162 q 482 -142 430 -162 q 572 -85 534 -122 q 633 2 611 -48 q 655 115 655 54 q 634 222 655 173 q 575 307 612 272 q 487 363 537 343 q 380 383 437 383 q 238 350 305 383 q 127 254 170 316 l 79 254 q 86 294 80 265 q 101 363 93 323 q 118 450 109 402 q 137 545 127 497 q 187 793 159 657 l 658 793 l 658 747 l 225 747 l 140 325 q 249 400 186 373 q 383 427 312 427 "}}}
